<svg width="131" height="42" viewBox="0 0 131 42" fill="none" xmlns="http://www.w3.org/2000/svg">
<path d="M16.3428 0C19.327 0.301469 21.6178 2.99465 21.792 5.89551C21.8981 7.6705 21.8904 10.1217 21.7891 11.8994C21.6377 14.5448 20.0785 16.6448 17.542 17.4727C17.2291 17.5748 16.792 17.5516 16.5859 17.7979C19.4978 18.2374 21.6283 20.7215 21.792 23.625C22.0202 27.6709 21.4957 32.033 21.7871 36.0479C21.9551 38.3671 23.4516 40.396 25.6572 41.168L26.9932 41.5293H20.9219C20.7265 41.5291 20.0059 41.3522 19.7764 41.2881C17.3149 40.5981 15.7598 38.3193 15.6113 35.8408C15.3664 31.7624 15.9308 27.3212 15.6172 23.2793C15.406 20.5649 12.9475 18.0207 10.2021 17.7979C10.2146 17.6896 10.3048 17.6915 10.3818 17.666C10.8412 17.517 11.3272 17.4851 11.8164 17.2988C13.8721 16.5151 15.4461 14.4386 15.6162 12.2471C15.7564 10.4446 15.7556 7.35344 15.6162 5.55078C15.4386 3.25355 13.5948 1.05961 11.4355 0.324219C11.1665 0.232626 10.8739 0.204005 10.6035 0.117188C10.53 0.0937465 10.3944 0.0998397 10.4102 0H16.3428ZM6.63672 19.0508C5.38095 19.5834 4.34703 20.9565 4.23047 22.3154C3.9842 25.1797 4.42505 28.391 4.23633 31.2891C4.08916 33.5455 2.41791 35.2397 0.117188 35.2549C0.0713793 35.2404 0 35.0987 0 35.0801V22.5254C0 20.874 1.86997 18.6966 3.57324 18.6963H7.69922L6.63672 19.0508ZM7.4248 5.6543C7.45946 5.86034 7.3698 5.76357 7.26172 5.7998C1.05673 7.87903 7.19203 15.6803 1.64355 17.8086C1.19672 17.9804 0.416999 18.2116 0 17.9688V9.4834C0 7.83959 1.87136 5.65464 3.57324 5.6543H7.4248ZM10.791 5.6543C11.242 5.6543 12.3548 6.85243 12.4609 7.30566C13.0337 9.74335 9.52059 10.7726 8.54492 8.71582C8.50122 8.6234 8.32819 8.16092 8.32812 8.10352V5.75781L8.43164 5.6543H10.791Z" fill="#1e1b17"/>
<path d="M37.5574 8.24945H42.8849V9.5784H39.0263V11.7467H42.6634V13.0756H39.0263V16.5029H37.5574V8.24945ZM44.9741 12.4112C44.9741 11.7506 45.0829 11.1522 45.3005 10.6159C45.5181 10.0719 45.8173 9.60948 46.1981 9.22867C46.5867 8.84786 47.0453 8.55643 47.5737 8.35436C48.11 8.14453 48.6967 8.03961 49.334 8.03961C49.979 8.03184 50.5697 8.12898 51.1059 8.33105C51.6422 8.52534 52.1046 8.81289 52.4932 9.1937C52.8818 9.57451 53.1849 10.033 53.4025 10.5693C53.6201 11.1055 53.7289 11.7039 53.7289 12.3645C53.7289 13.0096 53.6201 13.5963 53.4025 14.1248C53.1849 14.6533 52.8818 15.1079 52.4932 15.4887C52.1046 15.8695 51.6422 16.1687 51.1059 16.3864C50.5697 16.5962 49.979 16.705 49.334 16.7128C48.6967 16.7128 48.11 16.6117 47.5737 16.4097C47.0453 16.1998 46.5867 15.9084 46.1981 15.5354C45.8173 15.1545 45.5181 14.6999 45.3005 14.1714C45.0829 13.643 44.9741 13.0562 44.9741 12.4112ZM46.5129 12.3179C46.5129 12.7609 46.579 13.1689 46.7111 13.5419C46.851 13.915 47.0453 14.2375 47.2939 14.5095C47.5426 14.7815 47.838 14.9952 48.1799 15.1507C48.5296 15.3061 48.9182 15.3838 49.3457 15.3838C49.7731 15.3838 50.1617 15.3061 50.5114 15.1507C50.8611 14.9952 51.1603 14.7815 51.409 14.5095C51.6577 14.2375 51.8481 13.915 51.9802 13.5419C52.1201 13.1689 52.1901 12.7609 52.1901 12.3179C52.1901 11.906 52.1201 11.5213 51.9802 11.1638C51.8481 10.8063 51.6577 10.4955 51.409 10.2312C51.1603 9.95921 50.8611 9.74937 50.5114 9.60171C50.1617 9.44628 49.7731 9.36856 49.3457 9.36856C48.9182 9.36856 48.5296 9.44628 48.1799 9.60171C47.838 9.74937 47.5426 9.95921 47.2939 10.2312C47.0453 10.4955 46.851 10.8063 46.7111 11.1638C46.579 11.5213 46.5129 11.906 46.5129 12.3179ZM56.2936 8.24945H58.2404L62.2389 14.3813H62.2622V8.24945H63.7311V16.5029H61.8659L57.7858 10.1729H57.7624V16.5029H56.2936V8.24945ZM72.403 10.1846C72.0999 9.85818 71.8046 9.64057 71.5171 9.53177C71.2373 9.42296 70.9536 9.36856 70.6661 9.36856C70.2386 9.36856 69.85 9.44628 69.5003 9.60171C69.1584 9.74937 68.863 9.95921 68.6144 10.2312C68.3657 10.4955 68.1714 10.8063 68.0315 11.1638C67.8994 11.5213 67.8333 11.906 67.8333 12.3179C67.8333 12.7609 67.8994 13.1689 68.0315 13.5419C68.1714 13.915 68.3657 14.2375 68.6144 14.5095C68.863 14.7815 69.1584 14.9952 69.5003 15.1507C69.85 15.3061 70.2386 15.3838 70.6661 15.3838C71.0002 15.3838 71.3228 15.3061 71.6336 15.1507C71.9523 14.9875 72.2476 14.731 72.5196 14.3813L73.732 15.2439C73.3589 15.7569 72.9043 16.1299 72.3681 16.363C71.8318 16.5962 71.2606 16.7128 70.6544 16.7128C70.0171 16.7128 69.4304 16.6117 68.8941 16.4097C68.3657 16.1998 67.9071 15.9084 67.5186 15.5354C67.1377 15.1545 66.8385 14.6999 66.6209 14.1714C66.4033 13.643 66.2945 13.0562 66.2945 12.4112C66.2945 11.7506 66.4033 11.1522 66.6209 10.6159C66.8385 10.0719 67.1377 9.60948 67.5186 9.22867C67.9071 8.84786 68.3657 8.55643 68.8941 8.35436C69.4304 8.14453 70.0171 8.03961 70.6544 8.03961C71.214 8.03961 71.7308 8.14064 72.2049 8.3427C72.6867 8.537 73.1336 8.87118 73.5455 9.34525L72.403 10.1846ZM75.8486 8.24945H77.3175V16.5029H75.8486V8.24945ZM80.2939 8.24945H85.7612V9.5784H81.7627V11.6068H85.5514V12.9357H81.7627V15.174H85.971V16.5029H80.2939V8.24945ZM83.488 7.68989H82.3922L80.7485 6.01121H82.3339L83.488 7.68989ZM88.5861 8.24945H91.4539C91.8502 8.24945 92.231 8.2883 92.5963 8.36602C92.9693 8.43597 93.2996 8.56031 93.5872 8.73906C93.8747 8.91781 94.104 9.15873 94.275 9.46182C94.446 9.76492 94.5314 10.1496 94.5314 10.6159C94.5314 11.2143 94.3644 11.7156 94.0302 12.1197C93.7038 12.5238 93.2336 12.7687 92.6196 12.8541L94.8112 16.5029H93.0393L91.1275 13.0057H90.055V16.5029H88.5861V8.24945ZM91.1974 11.7467C91.4072 11.7467 91.6171 11.7389 91.8269 11.7234C92.0367 11.7001 92.2272 11.6534 92.3981 11.5835C92.5769 11.5058 92.7207 11.3931 92.8295 11.2454C92.9383 11.09 92.9927 10.8763 92.9927 10.6043C92.9927 10.3633 92.9421 10.169 92.8411 10.0214C92.7401 9.87372 92.608 9.76492 92.4448 9.69497C92.2816 9.61725 92.0989 9.56674 91.8969 9.54342C91.7026 9.52011 91.5122 9.50845 91.3256 9.50845H90.055V11.7467H91.1974ZM97.0947 8.24945H102.562V9.5784H98.5636V11.6068H102.352V12.9357H98.5636V15.174H102.772V16.5029H97.0947V8.24945ZM37.5574 24.2494H40.4252C40.8215 24.2494 41.2023 24.2883 41.5676 24.366C41.9406 24.436 42.2709 24.5603 42.5585 24.7391C42.846 24.9178 43.0753 25.1587 43.2463 25.4618C43.4172 25.7649 43.5027 26.1496 43.5027 26.6159C43.5027 27.2143 43.3356 27.7156 43.0014 28.1197C42.675 28.5238 42.2049 28.7687 41.5909 28.8541L43.7825 32.5029H42.0106L40.0987 29.0057H39.0263V32.5029H37.5574V24.2494ZM40.1687 27.7467C40.3785 27.7467 40.5884 27.7389 40.7982 27.7234C41.008 27.7001 41.1984 27.6534 41.3694 27.5835C41.5482 27.5058 41.6919 27.3931 41.8007 27.2454C41.9095 27.09 41.9639 26.8763 41.9639 26.6043C41.9639 26.3633 41.9134 26.169 41.8124 26.0214C41.7114 25.8737 41.5792 25.7649 41.416 25.695C41.2528 25.6173 41.0702 25.5667 40.8681 25.5434C40.6738 25.5201 40.4834 25.5085 40.2969 25.5085H39.0263V27.7467H40.1687ZM46.066 24.2494H51.5333V25.5784H47.5348V27.6068H51.3235V28.9357H47.5348V31.174H51.7432V32.5029H46.066V24.2494ZM54.3583 24.2494H56.3051L60.3036 30.3813H60.3269V24.2494H61.7957V32.5029H59.9305L55.8504 26.1729H55.8271V32.5029H54.3583V24.2494ZM67.4717 24.2494H68.7424L72.2979 32.5029H70.6193L69.8499 30.6144H66.271L65.5249 32.5029H63.8812L67.4717 24.2494ZM69.3369 29.3554L68.0663 25.9981L66.7723 29.3554H69.3369ZM74.3459 24.2494H75.8147V32.5029H74.3459V24.2494ZM82.8363 26.0214C82.6808 25.796 82.471 25.6328 82.2068 25.5318C81.9503 25.423 81.6783 25.3686 81.3908 25.3686C81.2198 25.3686 81.0527 25.388 80.8895 25.4268C80.734 25.4657 80.5903 25.5279 80.4582 25.6134C80.3338 25.6989 80.2328 25.8115 80.1551 25.9514C80.0773 26.0836 80.0385 26.2429 80.0385 26.4294C80.0385 26.7092 80.1356 26.9229 80.3299 27.0706C80.5242 27.2182 80.7651 27.3464 81.0527 27.4552C81.3402 27.5641 81.655 27.669 81.9969 27.77C82.3389 27.871 82.6536 28.0109 82.9412 28.1897C83.2287 28.3684 83.4697 28.6055 83.664 28.9008C83.8582 29.1961 83.9554 29.5886 83.9554 30.0782C83.9554 30.5212 83.8738 30.9097 83.7106 31.2439C83.5474 31.5703 83.3259 31.8423 83.0461 32.0599C82.7741 32.2776 82.4555 32.4408 82.0902 32.5496C81.7249 32.6584 81.3402 32.7128 80.9361 32.7128C80.4232 32.7128 79.9297 32.6273 79.4556 32.4563C78.9815 32.2853 78.5735 31.9978 78.2316 31.5936L79.339 30.5212C79.5178 30.7932 79.7509 31.0069 80.0385 31.1623C80.3338 31.31 80.6447 31.3838 80.9711 31.3838C81.1421 31.3838 81.313 31.3605 81.484 31.3139C81.655 31.2672 81.8104 31.1973 81.9503 31.104C82.0902 31.0108 82.2029 30.8942 82.2884 30.7543C82.3739 30.6066 82.4166 30.4396 82.4166 30.253C82.4166 29.9499 82.3195 29.7168 82.1252 29.5536C81.9309 29.3904 81.69 29.2544 81.4024 29.1456C81.1149 29.029 80.8001 28.9202 80.4582 28.8192C80.1162 28.7181 79.8015 28.5821 79.5139 28.4112C79.2263 28.2324 78.9854 27.9993 78.7911 27.7117C78.5968 27.4164 78.4997 27.0239 78.4997 26.5343C78.4997 26.1069 78.5852 25.7377 78.7562 25.4268C78.9349 25.116 79.1642 24.8595 79.444 24.6575C79.7315 24.4476 80.0579 24.2922 80.4232 24.1912C80.7884 24.0901 81.1615 24.0396 81.5423 24.0396C81.9775 24.0396 82.3972 24.1057 82.8013 24.2378C83.2132 24.3699 83.5824 24.5875 83.9088 24.8906L82.8363 26.0214ZM90.696 26.0214C90.5405 25.796 90.3307 25.6328 90.0665 25.5318C89.81 25.423 89.538 25.3686 89.2504 25.3686C89.0795 25.3686 88.9124 25.388 88.7492 25.4268C88.5937 25.4657 88.45 25.5279 88.3178 25.6134C88.1935 25.6989 88.0925 25.8115 88.0147 25.9514C87.937 26.0836 87.8982 26.2429 87.8982 26.4294C87.8982 26.7092 87.9953 26.9229 88.1896 27.0706C88.3839 27.2182 88.6248 27.3464 88.9124 27.4552C89.1999 27.5641 89.5147 27.669 89.8566 27.77C90.1986 27.871 90.5133 28.0109 90.8009 28.1897C91.0884 28.3684 91.3293 28.6055 91.5236 28.9008C91.7179 29.1961 91.8151 29.5886 91.8151 30.0782C91.8151 30.5212 91.7335 30.9097 91.5703 31.2439C91.4071 31.5703 91.1856 31.8423 90.9058 32.0599C90.6338 32.2776 90.3151 32.4408 89.9499 32.5496C89.5846 32.6584 89.1999 32.7128 88.7958 32.7128C88.2829 32.7128 87.7894 32.6273 87.3153 32.4563C86.8412 32.2853 86.4332 31.9978 86.0913 31.5936L87.1987 30.5212C87.3775 30.7932 87.6106 31.0069 87.8982 31.1623C88.1935 31.31 88.5044 31.3838 88.8308 31.3838C89.0017 31.3838 89.1727 31.3605 89.3437 31.3139C89.5147 31.2672 89.6701 31.1973 89.81 31.104C89.9499 31.0108 90.0626 30.8942 90.1481 30.7543C90.2335 30.6066 90.2763 30.4396 90.2763 30.253C90.2763 29.9499 90.1791 29.7168 89.9849 29.5536C89.7906 29.3904 89.5496 29.2544 89.2621 29.1456C88.9745 29.029 88.6598 28.9202 88.3178 28.8192C87.9759 28.7181 87.6611 28.5821 87.3736 28.4112C87.086 28.2324 86.8451 27.9993 86.6508 27.7117C86.4565 27.4164 86.3594 27.0239 86.3594 26.5343C86.3594 26.1069 86.4449 25.7377 86.6158 25.4268C86.7946 25.116 87.0239 24.8595 87.3036 24.6575C87.5912 24.4476 87.9176 24.2922 88.2829 24.1912C88.6481 24.0901 89.0212 24.0396 89.402 24.0396C89.8372 24.0396 90.2569 24.1057 90.661 24.2378C91.0729 24.3699 91.442 24.5875 91.7684 24.8906L90.696 26.0214ZM97.1801 24.2494H98.4507L102.006 32.5029H100.328L99.5582 30.6144H95.9793L95.2333 32.5029H93.5896L97.1801 24.2494ZM99.0453 29.3554L97.7746 25.9981L96.4806 29.3554H99.0453ZM104.089 24.2494H106.036L110.035 30.3813H110.058V24.2494H111.527V32.5029H109.661L105.581 26.1729H105.558V32.5029H104.089V24.2494ZM120.199 26.1846C119.896 25.8582 119.6 25.6406 119.313 25.5318C119.033 25.423 118.749 25.3686 118.462 25.3686C118.034 25.3686 117.646 25.4463 117.296 25.6017C116.954 25.7494 116.659 25.9592 116.41 26.2312C116.161 26.4955 115.967 26.8063 115.827 27.1638C115.695 27.5213 115.629 27.906 115.629 28.3179C115.629 28.7609 115.695 29.1689 115.827 29.5419C115.967 29.915 116.161 30.2375 116.41 30.5095C116.659 30.7815 116.954 30.9952 117.296 31.1507C117.646 31.3061 118.034 31.3838 118.462 31.3838C118.796 31.3838 119.118 31.3061 119.429 31.1507C119.748 30.9875 120.043 30.731 120.315 30.3813L121.528 31.2439C121.155 31.7569 120.7 32.1299 120.164 32.363C119.627 32.5962 119.056 32.7128 118.45 32.7128C117.813 32.7128 117.226 32.6117 116.69 32.4097C116.161 32.1998 115.703 31.9084 115.314 31.5354C114.933 31.1545 114.634 30.6999 114.417 30.1714C114.199 29.643 114.09 29.0562 114.09 28.4112C114.09 27.7506 114.199 27.1522 114.417 26.6159C114.634 26.0719 114.933 25.6095 115.314 25.2287C115.703 24.8479 116.161 24.5564 116.69 24.3544C117.226 24.1445 117.813 24.0396 118.45 24.0396C119.01 24.0396 119.526 24.1406 120 24.3427C120.482 24.537 120.929 24.8712 121.341 25.3452L120.199 26.1846ZM123.679 24.2494H129.147V25.5784H125.148V27.6068H128.937V28.9357H125.148V31.174H129.356V32.5029H123.679V24.2494Z" fill="#1e1b17"/>
</svg>
