<svg width="165" height="77" viewBox="0 0 165 77" fill="none" xmlns="http://www.w3.org/2000/svg">
<path d="M155.007 76.1752C152.752 76.1752 150.695 75.6444 148.837 74.5828C147.012 73.5212 145.751 72.1444 145.055 70.4524L148.687 68.7106C149.052 70.5353 149.849 72.0117 151.076 73.1396C152.304 74.2344 153.697 74.7818 155.256 74.7818C156.849 74.7818 158.126 74.3672 159.088 73.5378C160.083 72.7084 160.581 71.6135 160.581 70.2533C160.581 69.1253 160.266 68.213 159.636 67.5163C159.005 66.7864 158.242 66.2058 157.346 65.7746C156.451 65.3433 155.24 64.8622 153.714 64.3314C152.022 63.7674 150.661 63.2366 149.633 62.7389C148.605 62.2081 147.725 61.4783 146.995 60.5493C146.266 59.6204 145.884 58.4427 145.851 57.0161C145.818 54.8596 146.597 53.1179 148.19 51.7909C149.815 50.4638 151.939 49.8003 154.56 49.8003C156.65 49.8003 158.524 50.2482 160.183 51.1439C161.842 52.0397 162.953 53.234 163.517 54.7269L160.133 56.3194C159.669 54.7933 158.889 53.5658 157.794 52.6368C156.699 51.6747 155.505 51.1937 154.211 51.1937C152.718 51.1937 151.524 51.5752 150.628 52.3383C149.733 53.1013 149.285 54.0966 149.285 55.3241C149.285 56.2862 149.567 57.0824 150.131 57.7128C150.695 58.3431 151.391 58.8574 152.221 59.2555C153.083 59.6204 154.244 60.0517 155.704 60.5493C157.496 61.1797 158.939 61.7768 160.034 62.3408C161.128 62.8717 162.057 63.6513 162.82 64.6797C163.617 65.675 164.015 66.9689 164.015 68.5613C164.015 70.8173 163.169 72.6586 161.477 74.0852C159.818 75.4785 157.662 76.1752 155.007 76.1752Z" fill="#1e1b17"/>
<path d="M141.169 71.796C141.169 72.7913 141.435 73.488 141.965 73.8861C142.529 74.2842 143.359 74.5828 144.454 74.7818V75.4785H133.704V74.7818C134.832 74.5828 135.662 74.2842 136.193 73.8861C136.757 73.488 137.039 72.7913 137.039 71.796V57.663C137.039 56.1369 136.624 54.926 135.795 54.0302C134.998 53.1345 133.887 52.6866 132.46 52.6866C131.2 52.6866 130.022 53.0018 128.927 53.6321C127.832 54.2625 126.638 55.3075 125.344 56.7673V71.796C125.344 72.7913 125.61 73.488 126.14 73.8861C126.704 74.2842 127.534 74.5828 128.629 74.7818V75.4785H117.88V74.7818C119.008 74.5828 119.837 74.2842 120.368 73.8861C120.932 73.488 121.214 72.7913 121.214 71.796V55.125C121.214 54.2625 120.998 53.6321 120.567 53.234C120.169 52.8027 119.522 52.5705 118.626 52.5373H117.432V51.8406L124.647 49.8003H125.344V55.5729C126.804 53.6487 128.23 52.2056 129.624 51.2435C131.017 50.2813 132.543 49.8003 134.202 49.8003C136.425 49.8003 138.133 50.4638 139.328 51.7909C140.555 53.1179 141.169 54.9923 141.169 57.4142V71.796Z" fill="#1e1b17"/>
<path d="M80.8901 76.1752C78.6341 76.1752 76.6436 75.6113 74.9184 74.4833C73.1933 73.3553 71.8496 71.8126 70.8875 69.8552C69.9586 67.8978 69.4941 65.7082 69.4941 63.2864C69.4941 60.7318 69.9752 58.4427 70.9373 56.4189C71.8994 54.362 73.2762 52.753 75.0677 51.5918C76.8924 50.3975 78.9991 49.8003 81.3878 49.8003C82.9802 49.8003 84.4068 50.0989 85.6675 50.696C86.9613 51.2932 87.9898 52.0563 88.7528 52.9852C89.5159 53.9141 89.9803 54.8596 90.1462 55.8217L86.2149 57.0658C85.9163 55.4734 85.3191 54.0966 84.4234 52.9354C83.5276 51.7743 82.3001 51.1937 80.7408 51.1937C79.3806 51.1937 78.1697 51.625 77.108 52.4876C76.0464 53.3501 75.217 54.5445 74.6198 56.0706C74.0227 57.5635 73.7241 59.2555 73.7241 61.1465C73.7241 63.4025 74.089 65.393 74.8189 67.1182C75.5488 68.8433 76.5772 70.187 77.9043 71.1491C79.2645 72.1112 80.8569 72.5922 82.6816 72.5922C84.2077 72.5922 85.6343 72.1941 86.9613 71.3979C88.2884 70.6017 89.3832 69.4239 90.2458 67.8646L90.8429 68.0139C90.1794 70.5353 88.9685 72.5259 87.2101 73.9856C85.485 75.4454 83.3783 76.1752 80.8901 76.1752Z" fill="#1e1b17"/>
<path d="M64.3129 71.7959C64.3129 72.7912 64.5783 73.4879 65.1091 73.886C65.6731 74.2841 66.5025 74.5827 67.5973 74.7818V75.4784H56.8483V74.7818C57.9763 74.5827 58.8057 74.2841 59.3365 73.886C59.9005 73.4879 60.1825 72.7912 60.1825 71.7959V47.0615C60.1825 46.2321 59.9668 45.6018 59.5355 45.1705C59.1374 44.7392 58.4905 44.4904 57.5947 44.424H56.4004V43.7273L63.6162 41.687H64.3129V71.7959Z" fill="#1e1b17"/>
<path d="M95.4725 69.8413C96.2459 71.3883 97.266 72.6565 98.5326 73.6459C99.0924 74.0832 99.8743 74.0281 100.432 73.5887L100.457 73.5694C101.213 72.9742 101.312 71.8729 100.808 71.0531C100.154 69.988 99.6359 68.7713 99.2545 67.4029C98.7237 65.3792 98.4583 63.3388 98.4583 61.2819C98.4583 58.2297 99.0555 55.7415 100.25 53.8173C101.477 51.8931 103.103 50.931 105.127 50.931C106.885 50.931 108.361 51.6111 109.556 52.9713C110.75 54.3315 111.613 56.0235 112.143 58.0473C112.468 59.2117 112.699 60.3707 112.837 61.5242C112.981 62.7271 114.224 63.5497 115.341 63.0801L116.331 62.6637C116.96 62.3994 117.377 61.7831 117.335 61.1023C117.21 59.069 116.74 57.2379 115.925 55.6088C114.963 53.6846 113.603 52.1917 111.845 51.13C110.12 50.0684 108.146 49.5376 105.923 49.5376C103.601 49.5376 101.544 50.1182 99.7522 51.2793C97.9607 52.4405 96.5507 54.0661 95.5222 56.1562C94.5269 58.2131 94.0293 60.5852 94.0293 63.2725C94.0293 65.7275 94.5103 67.9171 95.4725 69.8413Z" fill="#1e1b17"/>
<path d="M130.739 31.4509C130.739 32.4462 131.004 33.1429 131.535 33.541C132.099 33.9391 132.928 34.2377 134.023 34.4367V35.1334H123.274V34.4367C124.402 34.2377 125.231 33.9391 125.762 33.541C126.326 33.1429 126.608 32.4462 126.608 31.4509V5.32475C126.608 4.46218 126.393 3.83183 125.961 3.43372C125.563 3.00243 124.916 2.7702 124.021 2.73702H122.826V2.04033L130.042 0H130.739V31.4509Z" fill="#1e1b17"/>
<path d="M122.499 33.1433V33.84L115.283 35.8803H114.586V29.4607C113.857 31.4513 112.745 33.0271 111.252 34.1883C109.759 35.3163 108.067 35.8803 106.176 35.8803C104.219 35.8803 102.626 35.2831 101.399 34.0888C100.205 32.8944 99.6074 31.3352 99.6074 29.411C99.6074 27.7853 99.9724 26.4417 100.702 25.3801C101.465 24.2853 102.643 23.3729 104.235 22.643C105.861 21.9132 108.018 21.2828 110.705 20.752L114.586 20.0055V18.3136C114.586 15.9912 114.072 14.1666 113.044 12.8395C112.015 11.5125 110.589 10.849 108.764 10.849C107.304 10.849 106.127 11.33 105.231 12.2921C104.368 13.2542 103.937 14.4154 103.937 15.7756C103.937 16.6382 104.136 17.5008 104.534 18.3633L100.652 19.707C100.155 18.7117 99.906 17.733 99.906 16.7709C99.906 15.4438 100.321 14.2163 101.15 13.0883C102.013 11.9604 103.19 11.0812 104.683 10.4508C106.176 9.78733 107.835 9.45557 109.66 9.45557C112.447 9.45557 114.653 10.2684 116.278 11.894C117.904 13.4865 118.717 15.6595 118.717 18.4131V30.5058C118.717 31.3683 118.916 31.9987 119.314 32.3968C119.745 32.7949 120.409 33.0271 121.305 33.0935L122.499 33.1433ZM114.586 21.4487L110.854 22.1952C108.465 22.6596 106.707 23.3729 105.579 24.335C104.451 25.2971 103.887 26.591 103.887 28.2166C103.887 29.61 104.302 30.7712 105.131 31.7001C105.961 32.5959 107.022 33.0437 108.316 33.0437C109.577 33.0437 110.771 32.5959 111.899 31.7001C113.027 30.7712 113.923 29.5602 114.586 28.0673V21.4487Z" fill="#1e1b17"/>
<path d="M86.4655 9.45517C88.4229 9.45517 90.1646 10.0192 91.6907 11.1471C93.2168 12.242 94.3946 13.7349 95.224 15.6259C96.0534 17.4838 96.4681 19.5573 96.4681 21.8464C96.4681 24.7991 95.9373 27.3371 94.8756 29.4603C93.814 31.5836 92.3874 33.1926 90.5959 34.2874C88.8376 35.3491 86.8968 35.8799 84.7735 35.8799C83.4133 35.8799 82.136 35.5813 80.9417 34.9841C79.7805 34.387 78.7853 33.5244 77.9559 32.3964L75.0198 35.8799H74.3231V5.32475C74.3231 4.46218 74.124 3.83183 73.7259 3.43372C73.3278 3.00243 72.6643 2.7702 71.7354 2.73702H70.541V2.04033L77.7568 0H78.4535V15.5761C79.1502 13.8178 80.1952 12.3581 81.5886 11.1969C83.0152 10.0357 84.6408 9.45517 86.4655 9.45517ZM85.2214 34.1879C86.5153 34.1879 87.6764 33.7234 88.7049 32.7945C89.7665 31.8324 90.5793 30.5551 91.1433 28.9627C91.7405 27.3702 92.0391 25.6285 92.0391 23.7375C92.0391 21.8132 91.7737 19.972 91.2429 18.2136C90.712 16.4553 89.8992 15.0122 88.8044 13.8842C87.7428 12.723 86.3992 12.1424 84.7735 12.1424C83.5128 12.1424 82.2687 12.6567 81.0412 13.6851C79.8137 14.6804 78.9511 15.8416 78.4535 17.1686V26.5242C78.4535 27.7849 78.7023 29.0124 79.2 30.2068C79.6976 31.3679 80.4607 32.33 81.4891 33.0931C82.5176 33.823 83.7617 34.1879 85.2214 34.1879Z" fill="#1e1b17"/>
<path d="M41.1664 31.4509C41.1664 32.4462 41.4318 33.1429 41.9626 33.541C42.5266 33.9391 43.356 34.2377 44.4508 34.4367V35.1334H33.7018V34.4367C34.8298 34.2377 35.6592 33.9391 36.19 33.541C36.754 33.1429 37.036 32.4462 37.036 31.4509V5.32475C37.036 4.46218 36.8203 3.83183 36.389 3.43372C35.9909 3.00243 35.344 2.7702 34.4482 2.73702H33.2539V2.04033L40.4697 0H41.1664V31.4509Z" fill="#1e1b17"/>
<path d="M69.176 13.9548C68.3551 12.3131 67.2566 10.9854 65.8803 9.97159C65.4514 9.65559 64.8669 9.69506 64.4482 10.0246L63.8452 10.4994C63.2782 10.9458 63.2021 11.7716 63.6026 12.3719C64.3704 13.5227 64.9675 14.8632 65.3939 16.3932C65.9247 18.417 66.1901 20.4573 66.1901 22.5142C66.1901 25.5664 65.593 28.0546 64.3986 29.9788C63.1711 31.903 61.5455 32.8652 59.5218 32.8652C57.7634 32.8652 56.2871 32.185 55.0928 30.8248C53.8984 29.4646 53.0358 27.7726 52.505 25.7489C52.121 24.3708 51.8677 23.0005 51.7452 21.6378C51.6638 20.7328 50.7332 20.1167 49.8956 20.4689L48.0581 21.2415C47.5865 21.4397 47.2755 21.9019 47.2987 22.4129C47.3964 24.5588 47.8711 26.4836 48.723 28.1873C49.6851 30.1115 51.0453 31.6045 52.8036 32.6661C54.5288 33.7277 56.5027 34.2585 58.7255 34.2585C61.0479 34.2585 63.1048 33.678 64.8963 32.5168C66.6878 31.3556 68.0978 29.73 69.1262 27.6399C70.1215 25.583 70.6191 23.2109 70.6191 20.5237C70.6191 18.0686 70.1381 15.879 69.176 13.9548Z" fill="#1e1b17"/>
<path d="M15.7849 35.6135C12.7506 35.6135 10.023 34.8935 7.60195 33.4533C5.21323 32.0131 3.34098 30.0492 1.98522 27.5617C0.661741 25.0414 0 22.2756 0 19.2643C0 15.7621 0.661741 12.6526 1.98522 9.93593C3.34098 7.21924 5.26165 5.10808 7.74721 3.60245C10.2328 2.09681 13.1218 1.34399 16.4144 1.34399C19.4487 1.34399 22.0957 2.01498 24.3553 3.35696C26.6472 4.66621 28.1159 6.40096 28.7615 8.56122L24.5006 9.93593C23.9518 7.77567 22.8704 6.02455 21.2564 4.68258C19.6424 3.3406 17.7863 2.66961 15.6881 2.66961C13.5899 2.66961 11.7015 3.32423 10.023 4.63348C8.34439 5.90999 7.03705 7.71021 6.10093 10.0341C5.19709 12.3253 4.74517 14.9438 4.74517 17.8896C4.74517 20.8354 5.29393 23.5521 6.39145 26.0397C7.48897 28.5272 8.98999 30.5075 10.8945 31.9804C12.8313 33.4205 14.9779 34.1406 17.3344 34.1406C18.6256 34.1406 19.8684 33.9442 21.0627 33.5515C22.2894 33.1587 23.3223 32.5532 24.1616 31.7349V23.1921C24.1616 21.8173 23.8227 20.8027 23.1448 20.1481C22.4669 19.4934 21.2725 19.117 19.5617 19.0188V18.3315H32.9256V19.0188C31.4085 19.117 30.2948 19.5098 29.5847 20.1972C28.9068 20.8845 28.5678 21.8828 28.5678 23.1921V29.7219C27.3412 31.4239 25.5981 32.8314 23.3385 33.9442C21.1111 35.0571 18.5933 35.6135 15.7849 35.6135Z" fill="#1e1b17"/>
</svg>
